<svg width="36" height="36" viewBox="0 0 36 36" fill="none" xmlns="http://www.w3.org/2000/svg">
<g clip-path="url(#clip0_2_106)">
<path d="M14.8815 10.9053C13.9455 10.6677 12.9645 10.7685 12.1959 11.1987C11.4129 11.6361 10.8639 12.4119 10.8369 13.4496C10.7955 15.0714 11.1708 17.2476 12.6612 19.8018C14.1327 22.3245 15.7572 23.8365 17.1054 24.7347C17.9568 25.3026 18.8973 25.3179 19.701 24.948C20.493 24.5835 21.1356 23.8554 21.4695 22.9527C21.5526 22.7282 21.586 22.4883 21.5673 22.2496C21.5487 22.011 21.4784 21.7792 21.3615 21.5703L20.5029 20.0376C20.2388 19.5663 19.814 19.2058 19.306 19.0218C18.798 18.8379 18.2409 18.8429 17.7363 19.0359L17.1369 19.2654C16.8462 19.3761 16.5789 19.3248 16.4277 19.1754C15.9192 18.6759 15.5556 17.9982 15.3909 17.2674C15.3387 17.037 15.4449 16.7652 15.6987 16.5735L16.2396 16.1649C16.6769 15.8349 16.9787 15.3568 17.0886 14.8201C17.1984 14.2834 17.1087 13.725 16.8363 13.2498L15.9615 11.7243C15.8456 11.5223 15.6902 11.3457 15.5047 11.205C15.3192 11.0643 15.1072 10.9624 14.8815 10.9053V10.9053ZM11.7369 13.473C11.7549 12.7764 12.1077 12.2787 12.6351 11.9835C13.1769 11.6802 13.9167 11.5875 14.6601 11.7765C14.8806 11.8323 15.0678 11.9745 15.1812 12.1716L16.0551 13.6971C16.2185 13.9821 16.2724 14.317 16.2066 14.6389C16.1409 14.9608 15.9599 15.2477 15.6978 15.4458L15.1569 15.8544C14.6889 16.2072 14.3649 16.812 14.5125 17.4645C14.7123 18.3483 15.1542 19.1862 15.7968 19.8171C16.2666 20.2779 16.9362 20.3049 17.4582 20.1051L18.0576 19.8756C18.3604 19.7597 18.6949 19.7566 18.9998 19.867C19.3047 19.9774 19.5596 20.1939 19.7181 20.4768L20.5758 22.0095C20.6838 22.2021 20.7018 22.4325 20.6253 22.6395C20.3643 23.346 19.8738 23.8761 19.3248 24.129C18.7875 24.3765 18.18 24.3693 17.6049 23.985C16.371 23.1624 14.8419 21.7512 13.4379 19.3473C12.033 16.9362 11.7 14.9256 11.7378 13.4739L11.7369 13.473Z" fill="#313131"/>
<circle cx="18" cy="18" r="17.5" stroke="#828898"/>
<path d="M20.4694 10.8567C20.3651 10.7987 20.242 10.7845 20.1272 10.8173C20.0124 10.85 19.9154 10.927 19.8574 11.0313C19.7994 11.1356 19.7852 11.2587 19.8179 11.3735C19.8507 11.4882 19.9277 11.5853 20.032 11.6433L20.3776 11.8359C21.4572 12.4357 22.3756 13.2879 23.0542 14.3198C23.7329 15.3517 24.1516 16.5326 24.2746 17.7615L24.3034 18.045C24.3068 18.1057 24.3224 18.165 24.3494 18.2195C24.3764 18.274 24.4141 18.3224 24.4603 18.3619C24.5065 18.4014 24.5602 18.4311 24.6182 18.4493C24.6762 18.4674 24.7373 18.4737 24.7977 18.4676C24.8582 18.4615 24.9168 18.4432 24.97 18.4139C25.0232 18.3845 25.0699 18.3447 25.1074 18.2968C25.1448 18.2489 25.1721 18.1939 25.1876 18.1352C25.2032 18.0764 25.2067 18.0151 25.198 17.955L25.1701 17.6724C25.0328 16.2986 24.5648 14.9786 23.8062 13.825C23.0476 12.6715 22.021 11.7188 20.8141 11.0484L20.4694 10.8567V10.8567Z" fill="#313131"/>
<path d="M19.4135 13.2687C19.475 13.1665 19.5746 13.0928 19.6903 13.0639C19.8061 13.0351 19.9286 13.0534 20.0309 13.1148L20.1425 13.1814C20.8688 13.6171 21.4919 14.2052 21.9686 14.9053C22.4453 15.6053 22.7644 16.4005 22.9037 17.2359L22.9433 17.4762C22.9546 17.5351 22.954 17.5957 22.9416 17.6544C22.9292 17.7131 22.9051 17.7688 22.8709 17.818C22.8366 17.8673 22.7928 17.9092 22.7421 17.9413C22.6914 17.9734 22.6348 17.9951 22.5757 18.005C22.5165 18.0149 22.4559 18.0128 22.3975 17.999C22.3391 17.9851 22.2841 17.9598 22.2357 17.9243C22.1873 17.8889 22.1464 17.8441 22.1155 17.7927C22.0846 17.7412 22.0644 17.6841 22.0559 17.6247L22.0154 17.3844C21.8976 16.6776 21.6278 16.0048 21.2246 15.4124C20.8213 14.8201 20.2943 14.3224 19.6799 13.9536L19.5683 13.8861C19.5176 13.8558 19.4734 13.8157 19.4381 13.7682C19.4029 13.7208 19.3774 13.6668 19.363 13.6095C19.3486 13.5522 19.3457 13.4925 19.3543 13.4341C19.363 13.3756 19.3831 13.3194 19.4135 13.2687V13.2687Z" fill="#313131"/>
</g>
<defs>
<clipPath id="clip0_2_106">
<rect width="36" height="36" fill="white"/>
</clipPath>
</defs>
</svg>
